<svg xmlns="http://www.w3.org/2000/svg" xmlns:xlink="http://www.w3.org/1999/xlink" width="180" height="48" viewBox="0 0 180 48">
  <defs>
    <filter id="Rectangle_5" x="0" y="0" width="180" height="48" filterUnits="userSpaceOnUse">
      <feOffset dy="2" input="SourceAlpha"/>
      <feGaussianBlur stdDeviation="1" result="blur"/>
      <feFlood flood-opacity="0.161"/>
      <feComposite operator="in" in2="blur"/>
      <feComposite in="SourceGraphic"/>
    </filter>
    <filter id="Path_705" x="35.78" y="10.899" width="129.22" height="25.881" filterUnits="userSpaceOnUse">
      <feOffset dy="2" input="SourceAlpha"/>
      <feGaussianBlur stdDeviation="1" result="blur-2"/>
      <feFlood flood-color="#720a13"/>
      <feComposite operator="in" in2="blur-2"/>
      <feComposite in="SourceGraphic"/>
    </filter>
  </defs>
  <g id="buy-me-a-coffee-button.5ec87223" transform="translate(-1060 -633)">
    <g transform="matrix(1, 0, 0, 1, 1060, 633)" filter="url(#Rectangle_5)">
      <rect id="Rectangle_5-2" data-name="Rectangle 5" width="174" height="42" rx="3" transform="translate(3 1)" fill="#b63029"/>
    </g>
    <g transform="matrix(1, 0, 0, 1, 1060, 633)" filter="url(#Path_705)">
      <path id="Path_705-2" data-name="Path 705" d="M8.97-14.967v-1.31a11.634,11.634,0,0,0-.255-1.946c-.273-1.491-2.637-2-3.874-2-2.546,0-3.965-.091-3.965,1.091,0,2.31-.236,4.747-.236,7.021,0,1.237.146,2.692.146,3.983v1.655c0,.346-.036.709-.036,1.055C.75-4.763.877-4.09.877-3.4v.382C.877-1.235,1.9-1.653,3.3-1.562c.236,0,.473-.018.728-.018.564,0,1.091.055,1.637.055a8.563,8.563,0,0,0,.964-.055c1.6-.146,2.146-2.255,2.183-3.656v-.455c0-.309.036-.618.036-.928a7.354,7.354,0,0,0-.164-1.4c-.18-.8-1.11-1.292-1.11-1.455,0-.091.091-.164.236-.255C8.97-10.42,8.879-13.258,8.97-14.967ZM3.259-13.876v-2.255c0-.437-.055-.873-.055-1.31s.582-.364,1.219-.364a5.121,5.121,0,0,1,.746.036c1.364.182,1.237,2.856,1.237,4.438,0,.564-.036,1.146-.073,1.71-.091,1.182-1.983,1.146-2.819,1.146-.2,0-.273-.109-.273-.346,0-.364.036-.728.036-1.091,0-.655-.036-1.31-.036-1.964ZM3.15-6.582C3.15-8,3.6-7.837,4.7-7.837c1.364,0,1.673.928,1.673,2.164,0,1.6-.909,1.819-2.565,1.819-.4,0-.564-.055-.6-.418C3.2-5.036,3.168-5.819,3.15-6.582Zm6.984-4.129v.346c0,.418-.036.837-.036,1.255,0,6.711.782,8.239,3.656,8.239,2.31,0,3.328-.673,4.147-1.892A8.068,8.068,0,0,0,18.355-6v-.236c-.018-.655.055-1.364.055-2.019,0-.473-.036-.946-.036-1.437,0-.691.055-1.382.055-2.092,0-.346-.036-.709-.036-1.073,0-.218.018-.437.018-.637,0-1.346-.091-2.728-.146-4.092-.036-.873.2-2.146-.8-2.146h-.291c-.382,0-.873-.109-1.128-.109-.6,0-.4,1.855-.4,2.692,0,.273.036.564.036.837,0,.509-.073,1.019-.073,1.528,0,.291.036.6.036.891,0,.418-.055.837-.055,1.237,0,.655.091,1.291.091,1.964,0,.127-.018.273-.018.418,0,1.055.146,2.274.146,3.492,0,1.946-.2,2.965-1.528,2.965-1.728,0-1.382-2.364-1.382-4.274,0-1.037.127-2.146.127-3.237,0-.182-.036-.382-.036-.564,0-.491.036-1.019.036-1.528a37.879,37.879,0,0,0-.127-4.365c-.073-.509.127-2.183-.564-2.183a5.93,5.93,0,0,1-.746.091c-.273,0-.564-.055-.855-.055-.364,0-.527.055-.527.364,0,.418.036.855.036,1.273a8.012,8.012,0,0,0-.055.946c0,.364.036.728.036,1.128q-.109,1.937-.109,3.874c0,.547.019,1.09.019,1.636Zm18.1-3.056a16.725,16.725,0,0,0-.091-2.692c-.127-.746-.273-3.71-.909-3.71-.746,0-2.219-.2-2.219.382,0,1.4.255,2.965.255,4.42a4.433,4.433,0,0,0-.018.491c0,1.491.055,3,.055,4.511,0,.946-.273,1.491-1.364,1.491-.764,0-1.8-.2-1.8-1.219,0-.437.036-.855.036-1.273,0-.327-.018-.637-.036-.964,0-1.71.164-3.31.164-5.165v-.364a11.522,11.522,0,0,1,.073-1.582c0-.309-.073-.455-.418-.455-.637,0-1.273.018-1.928.018-.346,0-.418.218-.418.618,0,.8.036,1.6.036,2.4-.036.728-.164,1.455-.164,2.164,0,.091.018.182.018.273,0,.455-.055.982-.055,1.473,0,.218.018.418.018.637,0,.473-.055.964-.055,1.437,0,1.109-.109,3.056.782,3.619,2.11,1.346,2.219.364,2.219,1.873V-4.22c-.018,1.037.073,2.073.146,3.11.036.6.782.527,1.291.527.982,0,1.237-.055,1.237-.873,0-1.546-.164-3.183-.164-4.783,0-.473.728-.491,1.164-.618,1.746-.509,2.146-3.729,2.146-5.675Zm13.477,1.182a.42.42,0,0,1-.218-.255,51.6,51.6,0,0,1-1.855-5.511c-.418-1.655-.582-1.582-1.382-1.582a19.857,19.857,0,0,0-2.073.146c-1.382.164-1.128,2.31-1.128,4.292,0,1.164.091,2.4.091,3.492v.218c0,.928.146,1.746.146,2.728,0,.327-.018.655-.018,1v.4c0,1.328-.2,2.619-.2,3.947,0,.582-.146,1.746.437,1.746.618,0,1.146-.255,1.764-.255.455,0,.509-.327.509-.673-.036-.527-.073-1.073-.073-1.619,0-.491.055-1,.055-1.491,0-.418-.055-.837-.055-1.255,0-1.728.146-3.474.146-5.22,0-.873-.109-1.91-.109-2.819a2,2,0,0,1,.109-.873.8.8,0,0,1,.127.146A30.423,30.423,0,0,1,39.6-10.329c.164.818.273,2.4.6,2.474a27.888,27.888,0,0,0,3.019-.073c.928-.091,1.055-2.983,1.437-4.274a11.261,11.261,0,0,1,.782-2.856c.346.346.327,2.546.327,3.51v1.037c0,.4.036.782.036,1.164,0,.709-.055,1.437-.055,2.146,0,1.582.091,3.274.182,4.893,0,.618.273.691.655.691.491,0,.928.218,1.364.218.546,0,.582-.582.582-1.055,0-.873-.055-1.746-.055-2.6,0-1.619.073-3.237.073-4.874a40.329,40.329,0,0,0-.255-5.584c-.073-.491-.2-4.42-1.073-4.42-.509,0-1.055.073-1.564.073-.618,0-1.4-.055-2.092-.091-.218,0-.309.127-.364.382-.327,1.473-.473,2.983-.873,4.42-.126.435-.254,2.382-.617,2.563Zm12.2-5.111c.2.018.309.036.437.036.527,0,1.2.182,1.2-.618s.109-2.019-.564-2.019h-.473c-.382,0-.764.018-1.128.018-.455,0-.909-.091-1.364-.091-.782,0-2.31.127-2.31.691,0,.236.036.455.036.691,0,.273-.018.546-.018.818,0,3.383.236,6.8.236,10.258,0,.218-.018.4-.018.637,0,.382.073.782.073,1.164,0,.437-.036.873-.036,1.31,0,.364.036.728.036,1.091a2.945,2.945,0,0,1-.018.4c0,.473.091.964.127,1.455.036.509.418.455,1,.455.691,0,1.364-.146,2.055-.146a1.565,1.565,0,0,0,.291.018c.509,0,1-.127,1.491-.127.2,0,.364.055.582.055.364-.036.364-.473.364-.982,0-1.455-.382-1.346-1.4-1.346-.4,0-1.746.127-1.837-.455,0-.928-.291-1.8-.291-2.746V-8.31c0-.673-.073-1.364-.073-2.055,0-.909,3.219-.018,3.219-1.164,0-2.328-.273-2.146-1.637-2.146-.4,0-.8.073-1.182.073-.182,0-.291-.109-.291-.327,0-.691.164-1.437.164-2.128,0-.255-.055-.509-.055-.764,0-1.165.658-.879,1.386-.879Zm9,11.477c0,1.346.018,2.692.109,4.038,0,.691.218.709.709.709.673-.055,1.946,0,1.946-.564v-.146a18.788,18.788,0,0,1-.364-3.729c0-.418-.018-.673.327-.709.055,0,.127.018.182.018.6,0,1.219-.018,1.819-.018.709,0,.527,1.546.527,2.546,0,.327-.018.655-.018.982,0,.764,1.419.491,2.419.491.309,0,.4-.418.4-.673.218-2.328.127-4.874.127-7.275,0-.255-.018-.491-.018-.746,0-.782.091-1.6.091-2.328a17.094,17.094,0,0,0-.327-4.365c-.218-.8-.982-1.237-1.6-1.728-.637-.509-2.292-.582-3.365-.582-1.855,0-2.674.673-2.892,2.892-.109,1.8-.236,3.6-.236,5.438.06,1.968.114,3.84.169,5.749Zm5.42-5.948c0,3.237-.055,2.928-1.364,2.928h-.146c-.418,0-.837.109-1.273.109-.2,0-.255-.2-.255-.364,0-1.109.055-2.164.055-3.2v-.673c0-2.11-.073-4.474,1.273-4.474a2.969,2.969,0,0,1,.891.164c.709.236.8,2.874.8,4.056a9.3,9.3,0,0,0,.024,1.455ZM80.917-14.95H80.9c.073-2.073-.109-2.892,1.546-2.892,1.491,0,1.473,1.328,1.473,2.583a3.5,3.5,0,0,1-.018.437c0,.564-.055.891.437.928.855,0,2.11.127,2.11-.855,0-1.055.036-3.147-.618-4.2A3.462,3.462,0,0,0,84-20.078a13.967,13.967,0,0,0-2.6-.346c-3.6,0-3.31,3.91-3.31,5.857,0,1.564.091,3.092.146,4.765.018.327-.036.673-.036,1,0,.309.018.637.018.946a4.11,4.11,0,0,1-.018.473c0,5.929,1.746,5.857,4.292,5.857.473,0,.946-.146,1.382-.146C85.651-1.8,86.4-3.691,86.4-5.309a16.79,16.79,0,0,0-.146-2.146c-.073-.637-.964-.564-1.528-.564-.691,0-1.055.036-1.055.455,0,.691.291,1.437.291,2.073,0,1.164-.873,1.419-1.782,1.419C81.086-4.109,81-5.364,81-6.273c0-1.219.127-2.419.127-3.656,0-.782-.255-1.546-.255-2.274,0-.764.05-1.818.05-2.746Zm15,2.11h.018c-.2-4.638-.218-7.621-3.237-7.621-.527,0-1.073.091-1.6.091H91.03C87.338-20.37,87.5-17.478,87.5-15c.036.637.055,1.255.055,1.892,0,1.091-.091,2.219-.091,3.31a15.31,15.31,0,0,0,.255,2.019c.418,4.8.709,6.693,3.692,6.693a6.9,6.9,0,0,0,3.219-.728c1.528-.691,1.346-2.6,1.346-4.256,0-1.109-.091-2.237-.091-3.347,0-1.144.04-2.271.04-3.417ZM93.308-8.947c.018.964.073,1.91.073,2.874,0,1.382-.527,2.055-1.892,2.055-1.619,0-1.237-2.856-1.237-4.6,0-.346.127-.637.127-.964v-.109a31.737,31.737,0,0,1-.182-4.565c0-.4.036-.764.073-1.164.146-1.28-.363-2.58,1.656-2.58.909,0,1.037,1.328,1.109,2.2.109,2.274.218,4.565.291,6.857Zm6.457-6.22c.036-1.691-.2-2.474.728-2.474.691,0,1.4.018,2.092.018.273,0,.418-.127.418-.346,0-.946.091-2.183-.964-2.183-.564,0-1.146.109-1.71.109h-.291c-2.928,0-2.655.509-2.728,1.673,0,1.455-.164,2.91-.164,4.365,0,.6.055,1.164.055,1.782,0,.437-.018.873-.018,1.31,0,.273.018.527.018.8,0,.418-.036.837-.036,1.255,0,.2.018.4.036.6,0,.327-.036.673-.036,1,0,.364.018.709.018,1.073,0,.218-.018.418-.018.618,0,.6.055,1.182.055,1.782.273,1.8-.255,2.164.691,2.164.728,0,2,.291,2-.637,0-1.619-.218-3.292-.218-4.893,0-.327.509-.346.818-.346-.073,0,2.437-.055,2.437-.782,0-1.873-.109-2.055-1.746-2.055-.4,0-.818.073-1.2.073-.4,0-.273-.437-.327-1.255,0-1,.091-2,.091-3Zm6.675,0c.036-1.691-.2-2.474.728-2.474.691,0,1.4.018,2.092.018.273,0,.418-.127.418-.346,0-.946.091-2.183-.964-2.183-.564,0-1.146.109-1.71.109h-.291c-2.928,0-2.655.509-2.728,1.673,0,1.455-.164,2.91-.164,4.365,0,.6.055,1.164.055,1.782,0,.437-.018.873-.018,1.31,0,.273.018.527.018.8,0,.418-.036.837-.036,1.255,0,.2.018.4.036.6,0,.327-.036.673-.036,1,0,.364.018.709.018,1.073,0,.218-.018.418-.018.618,0,.6.055,1.182.055,1.782.273,1.8-.255,2.164.691,2.164.728,0,2,.291,2-.637,0-1.619-.218-3.292-.218-4.893,0-.327.509-.346.818-.346-.073,0,2.437-.055,2.437-.782,0-1.873-.109-2.055-1.746-2.055-.4,0-.818.073-1.2.073-.4,0-.273-.437-.327-1.255,0-1,.091-2,.091-3Zm8.221-2.528c.2.018.309.036.437.036.527,0,1.2.182,1.2-.618s.109-2.019-.564-2.019h-.473c-.382,0-.764.018-1.128.018-.455,0-.909-.091-1.364-.091-.782,0-2.31.127-2.31.691,0,.236.036.455.036.691,0,.273-.018.546-.018.818,0,3.383.236,6.8.236,10.258,0,.218-.018.4-.018.637,0,.382.073.782.073,1.164,0,.437-.036.873-.036,1.31,0,.364.036.728.036,1.091a2.946,2.946,0,0,1-.018.4c0,.473.091.964.127,1.455.036.509.418.455,1,.455.691,0,1.364-.146,2.055-.146a1.564,1.564,0,0,0,.291.018c.509,0,1-.127,1.491-.127.2,0,.364.055.582.055.364-.036.364-.473.364-.982,0-1.455-.382-1.346-1.4-1.346-.4,0-1.746.127-1.837-.455,0-.928-.291-1.8-.291-2.746V-8.31c0-.673-.073-1.364-.073-2.055,0-.909,3.219-.018,3.219-1.164,0-2.328-.273-2.146-1.637-2.146-.4,0-.8.073-1.182.073-.182,0-.291-.109-.291-.327,0-.691.164-1.437.164-2.128,0-.255-.055-.509-.055-.764,0-1.165.657-.879,1.384-.879Zm7.2,0c.2.018.309.036.437.036.527,0,1.2.182,1.2-.618s.109-2.019-.564-2.019h-.473c-.382,0-.764.018-1.128.018-.455,0-.909-.091-1.364-.091-.782,0-2.31.127-2.31.691,0,.236.036.455.036.691,0,.273-.018.546-.018.818,0,3.383.236,6.8.236,10.258,0,.218-.018.4-.018.637,0,.382.073.782.073,1.164,0,.437-.036.873-.036,1.31,0,.364.036.728.036,1.091a2.945,2.945,0,0,1-.018.4c0,.473.091.964.127,1.455.036.509.418.455,1,.455.691,0,1.364-.146,2.055-.146a1.565,1.565,0,0,0,.291.018c.509,0,1-.127,1.491-.127.2,0,.364.055.582.055.364-.036.364-.473.364-.982,0-1.455-.382-1.346-1.4-1.346-.4,0-1.746.127-1.837-.455,0-.928-.291-1.8-.291-2.746V-8.31c0-.673-.073-1.364-.073-2.055,0-.909,3.219-.018,3.219-1.164,0-2.328-.273-2.146-1.637-2.146-.4,0-.8.073-1.182.073-.182,0-.291-.109-.291-.327,0-.691.164-1.437.164-2.128,0-.255-.055-.509-.055-.764,0-1.165.659-.879,1.387-.879Z" transform="translate(38.14 32.36)" fill="#fdf2f2"/>
    </g>
    <g id="Group_23" data-name="Group 23" transform="translate(1072.804 642.899)">
      <g id="Group_13" data-name="Group 13" transform="translate(2.105 4.907)">
        <path id="Path_706" data-name="Path 706" d="M5.968.036,0,0,2.931,18.62h7.141L13,0Z" fill="#c36f00" fill-rule="evenodd"/>
      </g>
      <g id="Group_14" data-name="Group 14" transform="translate(2.105 4.907)">
        <path id="Path_707" data-name="Path 707" d="M5.968.036,0,0,2.931,18.62H8.58L11.51,0Z" fill="#f2b2b0" fill-rule="evenodd"/>
      </g>
      <g id="Group_15" data-name="Group 15" transform="translate(0.4 3.19)">
        <path id="Path_708" data-name="Path 708" d="M0,1.717H15.4V0H0Z" fill="#fdf2f2" fill-rule="evenodd"/>
      </g>
      <g id="Group_16" data-name="Group 16" transform="translate(0 2.79)">
        <path id="Path_709" data-name="Path 709" d="M-.376,1.341h-.4v.4h.4Zm15.4,0v.4h.4v-.4Zm0-1.717h.4v-.4h-.4Zm-15.4,0v-.4h-.4v.4Zm0,2.117h15.4v-.8H-.376Zm15.8-.4V-.376h-.8V1.341Zm-.4-2.117H-.376v.8h15.4Zm-15.8.4V1.341h.8V-.376Z" transform="translate(0.776 0.776)"/>
      </g>
      <g id="Group_17" data-name="Group 17" transform="translate(2.158 0.4)">
        <path id="Path_710" data-name="Path 710" d="M10.658,0H1.119L0,2.576H11.777Z" fill="#fdf2f2" fill-rule="evenodd"/>
      </g>
      <g id="Group_20" data-name="Group 20" transform="translate(0.571)">
        <g id="Group_18" data-name="Group 18" transform="translate(0.978)">
          <path id="Path_711" data-name="Path 711" d="M10.084-.376l.367-.159-.1-.24h-.262Zm-9.539,0v-.4H.283l-.1.24ZM-.574,2.2-.94,2.04l-.243.559h.609ZM11.2,2.2v.4h.609l-.239-.56ZM10.084-.776H6.407v.8h3.677Zm-3.677,0H4.222v.8H6.407Zm-2.185,0H.545v.8H4.222ZM.179-.535-.94,2.04l.733.319L.912-.217ZM-.574,2.6h4.8V1.8h-4.8Zm4.8,0H6.407V1.8H4.222Zm2.185,0h4.8V1.8h-4.8Zm5.159-.56L10.451-.535l-.733.319L10.837,2.36Z" transform="translate(1.183 0.776)" fill="#050505"/>
        </g>
        <g id="Group_19" data-name="Group 19" transform="translate(0 4.505)">
          <path id="Path_712" data-name="Path 712" d="M6.594-.342v.4h0ZM-.44-.378v-.4H-.91l.073.464Zm2.931,18.62L2.1,18.3l.053.338h.342Zm8.207,0v.4h.342l.053-.338Zm2.93-18.62.4.062L14.1-.781h-.47ZM6.6-.742-.438-.778v.8l7.03.035ZM-.835-.316,2.1,18.3l.79-.124L-.046-.441ZM2.491,18.641H3.13v-.8H2.491Zm.639,0h6.928v-.8H3.13Zm6.928,0H10.7v-.8h-.639Zm1.034-.338L14.023-.316l-.79-.124L10.3,18.179ZM13.626-.778,6.592-.742v.8L13.63.021Z" transform="translate(0.908 0.781)"/>
        </g>
      </g>
      <g id="Group_21" data-name="Group 21" transform="translate(0.773 10.165)">
        <path id="Path_713" data-name="Path 713" d="M14.548,0H0L1.313,7.4l5.961-.06,5.961.065Z" fill="#fdf2f2" fill-rule="evenodd"/>
      </g>
      <g id="Group_22" data-name="Group 22" transform="translate(0.296 9.766)">
        <path id="Path_714" data-name="Path 714" d="M14.1-.376l.394.07.083-.469H14.1Zm-14.548,0v-.4H-.926l.083.469Zm1.313,7.4L.471,7.1l.059.333H.869Zm5.961-.065v-.4H6.821Zm5.961.065v.4h.339l.059-.333ZM14.1-.776H7.078v.8H14.1Zm-7.021,0H6.573v.8h.505Zm-.505,0H-.449v.8H6.573Zm-7.416.47L.471,7.1l.787-.14L-.055-.446ZM.869,7.428,6.83,7.364l-.009-.8L.86,6.629Zm5.952-.065,5.961.065.009-.8L6.83,6.565ZM13.179,7.1,14.492-.3,13.7-.44l-1.313,7.4Z" transform="translate(0.926 0.776)"/>
      </g>
    </g>
  </g>
</svg>
